<svg width="176" height="165" viewBox="0 0 176 165" fill="none" xmlns="http://www.w3.org/2000/svg">
<path d="M15.9644 87.8999C39.8874 78.6959 60.6424 77.1759 94.1434 18.2679C119.026 -25.4841 168.784 15.6399 137.683 89.6639C106.581 163.687 32.7584 170.265 27.6034 161.715C22.4494 153.164 42.5094 141.325 30.0224 136.063C17.5364 130.802 -2.72955 135.961 1.56944 125.16C5.86844 114.359 24.2914 108.615 10.1674 103.924C-3.95656 99.2319 7.99744 90.9659 15.9644 87.8999Z" fill="white"/>
<path d="M84.1552 40.5679C84.1552 40.5679 63.8972 48.8279 49.6832 44.5449C35.4702 40.2619 38.1572 64.5029 62.5992 64.8109C87.0432 65.1169 84.1552 40.5679 84.1552 40.5679Z" fill="white"/>
<path d="M120.365 40.596C118.694 46.227 120.538 51.881 124.484 53.224C128.429 54.566 132.982 51.09 134.653 45.459C136.324 39.828 134.48 34.175 130.534 32.831C126.589 31.488 122.036 34.965 120.365 40.596Z" fill="#2B2B28"/>
<path d="M121.405 23.1179C121.045 25.2499 121.555 27.1829 122.543 27.4359C123.532 27.6869 124.625 26.1649 124.985 24.0329C125.345 21.9009 124.835 19.9689 123.847 19.7159C122.858 19.4629 121.765 20.9859 121.405 23.1179Z" fill="#2B2B28"/>
<path d="M133.118 23.6471C133.48 25.7521 134.614 27.4261 135.652 27.3861C136.69 27.3461 137.238 25.6071 136.877 23.5031C136.516 21.3991 135.382 19.7261 134.344 19.7661C133.306 19.8061 132.758 21.5441 133.118 23.6471Z" fill="#2B2B28"/>
<path d="M143.802 71.9929C148.978 55.5449 156.469 48.3789 170.406 43.2669C184.342 38.1539 167.635 20.3859 147.907 34.8209C128.18 49.2579 140.996 80.9119 143.802 71.9929Z" fill="white"/>
</svg>
